Coordinates
version=1
nRows=12
nColumns=46
inDegrees=yes

Units are S.I. units (second, meters, Newtons, ...)
Angles are in degrees.

endheader
time	pelvis_tilt	pelvis_list	pelvis_rotation	pelvis_tx	pelvis_ty	pelvis_tz	bb_angle	bb_tx	bb_ty	bb_tz	hip_flexion_r	hip_adduction_r	hip_rotation_r	knee_angle_r	knee_angle_r_beta	ankle_angle_r	subtalar_angle_r	mtp_angle_r	crank_angle_r	hip_flexion_l	hip_adduction_l	hip_rotation_l	knee_angle_l	knee_angle_l_beta	ankle_angle_l	subtalar_angle_l	mtp_angle_l	crank_angle_l	lumbar_extension	lumbar_bending	lumbar_rotation	arm_flex_r	arm_add_r	arm_rot_r	elbow_flex_r	pro_sup_r	wrist_flex_r	wrist_dev_r	arm_flex_l	arm_add_l	arm_rot_l	elbow_flex_l	pro_sup_l	wrist_flex_l	wrist_dev_l
      0.00000000	    -14.55561573	      0.73283776	      5.28068004	      0.18617973	      1.03998280	     -0.24358372	      0.00000000	      0.50000000	      0.00000000	      0.25000000	     44.96857694	     -9.20764892	     -1.75389457	     76.81224090	      1.34062651	     16.01605305	     -2.01556314	      0.00000000	      0.00000000	     81.75668181	     -5.66313423	     -3.52188519	     83.06619734	      1.44977864	     -8.53493702	     -5.18548492	      0.00000000	      0.00000000	    -56.63784697	      0.97429544	     -4.70551032	     84.77240239	    -18.29004509	     35.88877099	     53.78810114	     32.30807483	      0.00000000	      0.00000000	     80.36689951	    -18.89150389	     27.19384613	     63.72572288	     33.01153427	      0.00000000	      0.00000000
      0.00500000	    -14.46397303	      0.68038635	      5.29434136	      0.18625850	      1.04015376	     -0.24355878	      0.00000000	      0.50000000	      0.00000000	      0.25000000	     44.83728260	     -9.16013415	     -1.81604240	     76.76615965	      1.33982224	     16.00388073	     -2.03179123	      0.00000000	      0.00000000	     81.67653248	     -5.69069900	     -3.48259599	     83.09673173	      1.45031157	     -8.46629877	     -5.13360969	      0.00000000	      0.00000000	    -56.78630932	      1.04492533	     -4.58886840	     84.70712555	    -18.32826292	     35.46344337	     53.97979653	     32.93308325	      0.00000000	      0.00000000	     80.27829882	    -18.77968694	     26.84153166	     63.88182280	     33.59018947	      0.00000000	      0.00000000
      0.01000000	    -14.55293432	      0.65844321	      5.25638924	      0.18619241	      1.03991298	     -0.24352263	      0.00000000	      0.50000000	      0.00000000	      0.25000000	     44.96495135	     -9.10727152	     -1.78230399	     76.78485314	      1.34014850	     15.91762754	     -2.19308620	      0.00000000	      0.00000000	     81.80082189	     -5.73093682	     -3.45451887	     83.13481491	      1.45097624	     -8.39163725	     -5.02573181	      0.00000000	      0.00000000	    -56.64289706	      1.07835482	     -4.70798749	     85.28217301	    -18.46540502	     36.97339870	     52.58126716	     37.09655264	      0.00000000	      0.00000000	     80.14192499	    -19.10734526	     26.59937220	     63.49123635	     37.18338747	      0.00000000	      0.00000000
      0.01500000	    -14.51848966	      0.67730973	      5.24693044	      0.18618707	      1.04001223	     -0.24342920	      0.00000000	      0.50000000	      0.00000000	      0.25000000	     44.92816178	     -9.15726944	     -1.80320076	     76.81203405	      1.34062290	     16.08429098	     -1.85583729	      0.00000000	      0.00000000	     81.75375767	     -5.75527127	     -3.49344102	     83.11966967	      1.45071191	     -8.49260858	     -5.14031920	      0.00000000	      0.00000000	    -56.76149881	      1.03967315	     -4.67066992	     84.77408448	    -18.38977272	     35.36118990	     53.48492123	     37.88951130	      0.00000000	      0.00000000	     80.01721281	    -18.86872676	     25.92335743	     63.72133532	     37.95622226	      0.00000000	      0.00000000
      0.02000000	    -14.63345351	      0.68073965	      5.26084611	      0.18600137	      1.04001106	     -0.24355827	      0.00000000	      0.50000000	      0.00000000	      0.25000000	     45.06939418	     -9.18929223	     -1.79636055	     76.81385161	      1.34065462	     15.99646449	     -2.03489877	      0.00000000	      0.00000000	     81.87832075	     -5.70112424	     -3.45367073	     83.12303451	      1.45077064	     -8.43163676	     -5.12584672	      0.00000000	      0.00000000	    -56.50037758	      1.08303120	     -4.69305854	     85.11949323	    -18.29547119	     36.34073736	     52.34581605	     38.23977348	      0.00000000	      0.00000000	     80.25123877	    -19.08811132	     26.76093641	     62.90967339	     38.22748240	      0.00000000	      0.00000000
      0.02500000	    -14.60066024	      0.69639088	      5.30860305	      0.18599207	      1.04010800	     -0.24366363	      0.00000000	      0.50000000	      0.00000000	      0.25000000	     45.01876552	     -9.25404629	     -1.83604791	     76.82060715	      1.34077253	     16.08710939	     -1.89312751	      0.00000000	      0.00000000	     81.83298943	     -5.62535551	     -3.45363325	     83.09184195	      1.45022622	     -8.49266135	     -5.25099958	      0.00000000	      0.00000000	    -56.58859327	      1.08274589	     -4.65443801	     84.87779519	    -18.41093581	     35.61600370	     52.72125753	     39.07753283	      0.00000000	      0.00000000	     80.34400833	    -18.92249362	     26.66888701	     62.74919353	     39.01999222	      0.00000000	      0.00000000
      0.03000000	    -14.52210572	      0.69582030	      5.35812591	      0.18604351	      1.04034382	     -0.24374513	      0.00000000	      0.50000000	      0.00000000	      0.25000000	     44.89533877	     -9.28905600	     -1.90719740	     76.77181370	      1.33992092	     16.07049550	     -1.98590791	      0.00000000	      0.00000000	     81.73341281	     -5.58714757	     -3.46560905	     83.08361955	      1.45008272	     -8.46760381	     -5.31221095	      0.00000000	      0.00000000	    -56.71928845	      1.11864182	     -4.56898207	     84.67260695	    -18.39474109	     34.69902834	     52.96739962	     39.90758420	      0.00000000	      0.00000000	     80.33563495	    -18.67113084	     26.37807373	     62.65171081	     39.86654886	      0.00000000	      0.00000000
      0.03500000	    -14.69757732	      0.71949752	      5.23250275	      0.18595508	      1.03998777	     -0.24354417	      0.00000000	      0.50000000	      0.00000000	      0.25000000	     45.15648997	     -9.19968476	     -1.73495860	     76.82651820	      1.34087570	     15.98926704	     -2.03474537	      0.00000000	      0.00000000	     81.92433127	     -5.70244603	     -3.48729854	     83.08984556	      1.45019138	     -8.46123646	     -5.13053519	      0.00000000	      0.00000000	    -56.43953155	      0.98008817	     -4.67401101	     84.94178097	    -18.21424407	     35.47790006	     51.97451369	     41.04780889	      0.00000000	      0.00000000	     80.45373778	    -18.91988421	     26.72086042	     61.99094615	     40.98623135	      0.00000000	      0.00000000
      0.04000000	    -14.65597555	      0.66573914	      5.24276545	      0.18595421	      1.03997692	     -0.24358056	      0.00000000	      0.50000000	      0.00000000	      0.25000000	     45.10834492	     -9.15983419	     -1.79117464	     76.83201189	      1.34097158	     15.92905816	     -2.14881765	      0.00000000	      0.00000000	     81.91273056	     -5.70927870	     -3.41241128	     83.13985006	      1.45106412	     -8.34736771	     -4.99368991	      0.00000000	      0.00000000	    -56.48807930	      1.07253222	     -4.69278648	     85.28339293	    -18.50208546	     36.46629716	     51.69272075	     42.14741073	      0.00000000	      0.00000000	     80.24290890	    -19.14147142	     26.40964727	     62.40638152	     41.88804683	      0.00000000	      0.00000000
      0.04500000	    -14.64559724	      0.75392269	      5.26430496	      0.18593931	      1.04008939	     -0.24361770	      0.00000000	      0.50000000	      0.00000000	      0.25000000	     45.09272130	     -9.25716165	     -1.74050879	     76.83222753	      1.34097534	     16.00550630	     -1.98835897	      0.00000000	      0.00000000	     81.85996096	     -5.65378864	     -3.51892818	     83.08344720	      1.45007971	     -8.48502181	     -5.21580912	      0.00000000	      0.00000000	    -56.54421653	      0.96175917	     -4.56093923	     84.87531346	    -18.71396622	     35.43310206	     52.33706953	     42.50619617	      0.00000000	      0.00000000	     80.65916913	    -18.80655015	     26.94777727	     61.63520744	     42.30524449	      0.00000000	      0.00000000
      0.05000000	    -14.68557049	      0.69053579	      5.24169408	      0.18594743	      1.04000971	     -0.24356997	      0.00000000	      0.50000000	      0.00000000	      0.25000000	     45.13668946	     -9.17028765	     -1.74899382	     76.81637165	      1.34069860	     15.97186717	     -2.06831144	      0.00000000	      0.00000000	     81.92738963	     -5.69753963	     -3.44996040	     83.10578425	      1.45046956	     -8.43652559	     -5.13044363	      0.00000000	      0.00000000	    -56.46091879	      1.00957471	     -4.51927237	     85.00499827	    -18.65423738	     35.72296437	     51.97586420	     42.93448883	      0.00000000	      0.00000000	     80.61192377	    -18.81791813	     26.85858717	     61.49095886	     42.71184075	      0.00000000	      0.00000000
      0.05500000	    -14.68160781	      0.64681452	      5.22200306	      0.18598016	      1.04005960	     -0.24352399	      0.00000000	      0.50000000	      0.00000000	      0.25000000	     45.11912221	     -9.10547068	     -1.76399553	     76.78113289	      1.34008357	     15.93926913	     -2.20992512	      0.00000000	      0.00000000	     81.92382865	     -5.74787609	     -3.42130408	     83.10505864	      1.45045690	     -8.34870676	     -5.00514775	      0.00000000	      0.00000000	    -56.48984264	      1.03800549	     -4.53529787	     85.09335023	    -18.61870028	     35.83741184	     51.82393993	     43.29659115	      0.00000000	      0.00000000	     80.46347182	    -18.93674689	     26.64117643	     61.77003046	     43.01652507	      0.00000000	      0.00000000
